<svg width="12" height="8" viewBox="0 0 12 8" fill="none" xmlns="http://www.w3.org/2000/svg">
<path fill-rule="evenodd" clip-rule="evenodd" d="M12 4C12 4.36819 11.7008 4.66667 11.3316 4.66667L2.30603 4.66667L4.54825 6.85704C4.81197 7.11466 4.81639 7.53674 4.55811 7.79979C4.29984 8.06284 3.87668 8.06725 3.61296 7.80963L0.200712 4.4763C0.0723436 4.3509 -1.8268e-07 4.17922 -1.74846e-07 4C-1.67012e-07 3.82078 0.0723437 3.6491 0.200712 3.5237L3.61296 0.19037C3.87668 -0.0672493 4.29984 -0.062846 4.55811 0.200205C4.81639 0.463256 4.81197 0.885343 4.54825 1.14296L2.30603 3.33333L11.3316 3.33333C11.7008 3.33333 12 3.63181 12 4Z" fill="#00BEF0"/>
</svg>
