<svg width="18" height="19" viewBox="0 0 18 19" fill="none" xmlns="http://www.w3.org/2000/svg">
<path d="M17.624 6.91974C17.314 6.6114 16.8127 6.61277 16.5044 6.92275L6.98758 16.491C5.75289 17.7257 3.74757 17.7257 2.51057 16.4894C1.27451 15.2527 1.27451 13.2474 2.51072 12.0111L12.3092 2.16115C13.0801 1.39033 14.3333 1.39033 15.1064 2.16282C15.8793 2.93567 15.8793 4.18877 15.1062 4.96185L6.98906 13.079C6.98854 13.0795 6.9881 13.0801 6.98758 13.0806C6.67834 13.3881 6.17858 13.3877 5.86997 13.0791C5.56084 12.77 5.56084 12.269 5.86997 11.9598L9.78806 8.04092C10.0972 7.73172 10.0971 7.23043 9.78795 6.9213C9.47874 6.61218 8.97746 6.61221 8.66833 6.92141L4.75028 10.8402C3.82286 11.7677 3.82286 13.2712 4.75036 14.1987C5.67781 15.1261 7.18137 15.1261 8.10886 14.1987C8.10994 14.1976 8.11079 14.1965 8.11183 14.1954L16.2258 6.08139C17.6172 4.68998 17.6172 2.43435 16.2258 1.04294C14.8342 -0.347648 12.5787 -0.347648 11.1881 1.04294L1.38963 10.893C-0.463431 12.7461 -0.463431 15.7537 1.39096 17.609C3.24658 19.4636 6.25421 19.4636 8.10871 17.6091L17.6271 8.03936C17.9354 7.72934 17.934 7.22809 17.624 6.91974Z" fill="#B3C2C2"/>
</svg>
