<svg width="10" height="16" viewBox="0 0 10 16" fill="none" xmlns="http://www.w3.org/2000/svg">
<path d="M9.94383 9.61625C9.84258 9.3925 9.62008 9.25 9.37508 9.25H6.87508V1.125C6.87508 0.78 6.59508 0.5 6.25008 0.5H3.75008C3.40508 0.5 3.12508 0.78 3.12508 1.125V9.25H0.625077C0.380077 9.25 0.157577 9.39375 0.0563266 9.61625C-0.0461734 9.84 -0.00617336 10.1012 0.155077 10.2863L4.53008 15.2863C4.64883 15.4225 4.82008 15.5 5.00008 15.5C5.18008 15.5 5.35133 15.4213 5.47008 15.2863L9.84508 10.2863C10.0076 10.1025 10.0451 9.84 9.94383 9.61625Z" fill="#AFD2E1"/>
</svg>
