<svg width="133" height="26" viewBox="0 0 133 26" fill="none" xmlns="http://www.w3.org/2000/svg">
<g clip-path="url(#clip0)">
<path d="M12.8965 -0.00463814C10.3458 -0.00463814 7.8524 0.749375 5.73158 2.16205C3.61077 3.57473 1.9578 5.58262 0.981692 7.93181C0.00558785 10.281 -0.249805 12.866 0.247808 15.3599C0.745421 17.8538 1.97369 20.1446 3.7773 21.9426C5.5809 23.7406 7.87883 24.965 10.3805 25.4611C12.8822 25.9571 15.4752 25.7025 17.8317 24.7295C20.1883 23.7564 22.2024 22.1086 23.6195 19.9943C25.0366 17.8801 25.793 15.3945 25.793 12.8517C25.7934 11.1633 25.4602 9.49126 24.8123 7.93124C24.1643 6.37121 23.2144 4.95374 22.0168 3.75982C20.8191 2.5659 19.3972 1.61893 17.8323 0.973004C16.2674 0.327084 14.5902 -0.00512438 12.8965 -0.00463814ZM11.0663 18.3214L10.1234 21.1303C8.38501 20.5327 6.87696 19.4094 5.80947 17.9168C4.74198 16.4242 4.16824 14.6367 4.16824 12.8036C4.16824 10.9705 4.74198 9.18307 5.80947 7.69048C6.87696 6.19788 8.38501 5.07451 10.1234 4.47696L11.07 7.28952C9.91606 7.68556 8.91487 8.43081 8.20613 9.42128C7.49738 10.4118 7.11644 11.5981 7.11644 12.8147C7.11644 14.0314 7.49738 15.2177 8.20613 16.2082C8.91487 17.1986 9.91606 17.9439 11.07 18.3399L11.0663 18.3214ZM15.5211 21.1858L14.6301 18.3584C15.805 17.9808 16.8302 17.243 17.5597 16.2503C18.2892 15.2576 18.6857 14.0606 18.6927 12.8301C18.6997 11.5995 18.3168 10.3982 17.5987 9.39732C16.8805 8.39645 15.8637 7.64714 14.6932 7.25621L15.599 4.43625C17.3689 5.02202 18.9074 6.15102 19.9944 7.66162C21.0813 9.17222 21.6609 10.9869 21.6502 12.846C21.6395 14.705 21.039 16.5129 19.9347 18.011C18.8304 19.509 17.279 20.6203 15.5025 21.1858H15.5211Z" fill="#08C2F5"/>
<path d="M131.058 15.1693L132.491 16.879C131.87 17.5165 131.123 18.0194 130.298 18.3562C129.473 18.6931 128.587 18.8566 127.695 18.8367C126.553 18.8856 125.416 18.6597 124.38 18.178C122.476 17.238 121.518 15.3284 121.518 12.9969C121.518 9.47014 123.909 6.90182 127.428 6.90182C131.326 6.90182 133.23 9.8143 132.978 13.6076H124.05C124.074 14.0753 124.211 14.5303 124.448 14.9342C124.686 15.3381 125.018 15.6789 125.416 15.9279C126.155 16.3546 127.001 16.5614 127.855 16.5237C128.453 16.5279 129.046 16.4099 129.597 16.177C130.148 15.944 130.645 15.6011 131.058 15.1693ZM124.091 11.5611H130.401C130.246 10.1844 129.113 9.02235 127.291 9.02235C126.541 8.99327 125.805 9.23354 125.218 9.69946C124.63 10.1654 124.23 10.826 124.091 11.5611ZM64.152 18.5221H67.3743L62.3144 12.675L67.2926 7.17568H64.1186L60.3172 11.5796H59.2035V7.17568H56.7349V18.5221H59.2035V14.0072H60.3358L64.152 18.5221ZM74.6392 9.21108C72.5789 9.21108 71.2128 10.8098 71.2128 12.8489C71.2128 14.888 72.5789 16.483 74.6392 16.483C76.6995 16.483 78.0582 14.9176 78.0582 12.8489C78.0582 10.7802 76.7775 9.21108 74.6392 9.21108ZM75.0624 6.89442C78.2698 6.89442 80.6308 9.39982 80.6308 12.8489C80.6308 16.298 78.2884 18.8182 75.0624 18.8182C74.3787 18.8481 73.6965 18.7314 73.0618 18.476C72.4272 18.2207 71.8549 17.8326 71.3835 17.3379V23.2591H68.9V7.17568H71.3204V8.53755C71.7729 7.99235 72.3468 7.55994 72.9964 7.27469C73.646 6.98944 74.3535 6.85923 75.0624 6.89442ZM107.463 7.17568H97.2767V9.44793H101.126V18.5221H103.61V9.44793H107.463V7.17568ZM55.0198 7.17568H44.8333V9.44793H48.6829V18.5221H51.1664V9.44793H55.0198V7.17568ZM41.8152 12.8489C41.8152 10.7321 40.3043 9.16668 38.2588 9.16668C36.2134 9.16668 34.7062 10.684 34.7062 12.8489C34.7062 15.0138 36.1911 16.5497 38.2588 16.5497C40.3266 16.5497 41.8152 14.9953 41.8152 12.8489ZM32.1633 12.8489C32.1633 9.44793 34.8064 6.89442 38.2625 6.89442C41.7187 6.89442 44.3655 9.44793 44.3655 12.8489C44.3655 16.2499 41.7224 18.8182 38.2625 18.8182C34.8027 18.8182 32.1595 16.2499 32.1595 12.8489H32.1633ZM119.506 7.17568V18.5221H117.067V11.2021L111.098 18.5221H109.149V7.17568H111.588V14.4772L117.572 7.17568H119.506ZM95.5765 18.5221H93.1115V7.17568H95.5765V18.5221ZM89.2656 14.6512C89.2786 14.4254 89.2443 14.1994 89.165 13.9875C89.0857 13.7757 88.9631 13.5825 88.805 13.4204C88.6469 13.2582 88.4567 13.1306 88.2465 13.0456C88.0363 12.9606 87.8107 12.9201 87.5839 12.9266H85.0856V16.4201H87.5839C87.8123 16.42 88.0383 16.3734 88.248 16.2831C88.4577 16.1929 88.6467 16.0609 88.8035 15.8953C88.9602 15.7297 89.0814 15.534 89.1596 15.32C89.2378 15.1061 89.2713 14.8785 89.2582 14.6512H89.2656ZM91.7194 14.6512C91.7194 16.9234 90.0675 18.5221 87.6619 18.5221H82.6392V7.17568H85.1116V10.8431H87.8921C90.2345 10.8431 91.712 12.3604 91.712 14.6512H91.7194Z" fill="black"/>
</g>
<defs>
<clipPath id="clip0">
<rect width="133" height="26" fill="white"/>
</clipPath>
</defs>
</svg>
