<svg width="18" height="20" viewBox="0 0 18 20" fill="none" xmlns="http://www.w3.org/2000/svg">
<path fill-rule="evenodd" clip-rule="evenodd" d="M2.51534 14L3.69534 12.818C4.07334 12.44 4.28134 11.938 4.28134 11.404V6.72696C4.28134 5.36996 4.87134 4.07296 5.90134 3.17096C6.93934 2.26096 8.26134 1.86096 9.63834 2.04196C11.9653 2.35096 13.7203 4.45496 13.7203 6.93695V11.404C13.7203 11.938 13.9283 12.44 14.3053 12.817L15.4863 14H2.51534ZM11.0003 16.341C11.0003 17.24 10.0843 18 9.00034 18C7.91634 18 7.00034 17.24 7.00034 16.341V16H11.0003V16.341ZM17.5213 13.208L15.7203 11.404V6.93696C15.7203 3.45596 13.2183 0.498955 9.90034 0.0599553C7.97834 -0.196045 6.03834 0.390955 4.58334 1.66696C3.11934 2.94896 2.28134 4.79296 2.28134 6.72696L2.28034 11.404L0.479335 13.208C0.0103353 13.678 -0.128665 14.377 0.125335 14.99C0.380335 15.604 0.973335 16 1.63734 16H5.00034V16.341C5.00034 18.359 6.79434 20 9.00034 20C11.2063 20 13.0003 18.359 13.0003 16.341V16H16.3633C17.0273 16 17.6193 15.604 17.8733 14.991C18.1283 14.377 17.9903 13.677 17.5213 13.208Z" fill="#3C3C3C"/>
</svg>
