<svg width="14" height="13" viewBox="0 0 14 13" fill="none" xmlns="http://www.w3.org/2000/svg">
<path d="M6.34089 11.0694L6.32999 11.0587L6.31846 11.0487C4.63599 9.58865 3.28518 8.40016 2.35015 7.28416C1.42052 6.17462 0.953918 5.1964 0.953918 4.16317C0.953918 2.49042 2.26613 1.18948 3.99491 1.18948C4.9435 1.18948 5.89994 1.63107 6.51348 2.34237L6.89209 2.78132L7.27071 2.34237C7.88424 1.63107 8.84068 1.18948 9.78927 1.18948C11.5181 1.18948 12.8303 2.49042 12.8303 4.16317C12.8303 5.1964 12.3637 6.17462 11.434 7.28416C10.499 8.40016 9.14819 9.58865 7.46573 11.0487L7.4542 11.0587L7.44329 11.0694L6.89209 11.6101L6.34089 11.0694Z" stroke="white" stroke-opacity="0.7"/>
</svg>
