<svg width="45" height="54" viewBox="0 0 45 54" fill="none" xmlns="http://www.w3.org/2000/svg">
<g filter="url(#filter0_dd)">
<rect x="4.86816" width="35.3846" height="46" rx="2" fill="white"/>
<path d="M22.469 11.283C20.2126 11.283 18.0069 11.9374 16.1308 13.1635C14.2547 14.3896 12.7924 16.1323 11.929 18.1713C11.0655 20.2102 10.8396 22.4538 11.2798 24.6183C11.72 26.7828 12.8065 28.771 14.402 30.3315C15.9975 31.8921 18.0303 32.9548 20.2433 33.3853C22.4563 33.8159 24.7502 33.5949 26.8348 32.7504C28.9194 31.9058 30.7012 30.4756 31.9547 28.6406C33.2083 26.8056 33.8774 24.6483 33.8774 22.4414C33.8778 20.9759 33.583 19.5247 33.0099 18.1708C32.4367 16.8168 31.5964 15.5865 30.5369 14.5503C29.4775 13.5141 28.2196 12.6922 26.8353 12.1315C25.451 11.5709 23.9673 11.2826 22.469 11.283ZM20.85 27.1887L20.0159 29.6265C18.4781 29.1079 17.144 28.1329 16.1997 26.8375C15.2554 25.542 14.7478 23.9906 14.7478 22.3996C14.7478 20.8086 15.2554 19.2573 16.1997 17.9618C17.144 16.6663 18.4781 15.6913 20.0159 15.1727L20.8533 17.6138C19.8324 17.9575 18.9468 18.6044 18.3198 19.464C17.6928 20.3237 17.3559 21.3533 17.3559 22.4093C17.3559 23.4652 17.6928 24.4949 18.3198 25.3545C18.9468 26.2142 19.8324 26.861 20.8533 27.2047L20.85 27.1887ZM24.7907 29.6747L24.0026 27.2208C25.0419 26.893 25.9488 26.2527 26.5941 25.3911C27.2394 24.5295 27.5902 23.4906 27.5964 22.4226C27.6026 21.3546 27.2639 20.3119 26.6286 19.4432C25.9933 18.5745 25.0938 17.9242 24.0584 17.5849L24.8597 15.1374C26.4253 15.6458 27.7863 16.6257 28.7479 17.9368C29.7094 19.2478 30.2221 20.8229 30.2127 22.4364C30.2032 24.0498 29.672 25.619 28.6951 26.9192C27.7182 28.2194 26.3458 29.1839 24.7743 29.6747H24.7907Z" fill="#08C2F5"/>
</g>
<defs>
<filter id="filter0_dd" x="0.868164" y="0" width="43.3846" height="54" filterUnits="userSpaceOnUse" color-interpolation-filters="sRGB">
<feFlood flood-opacity="0" result="BackgroundImageFix"/>
<feColorMatrix in="SourceAlpha" type="matrix" values="0 0 0 0 0 0 0 0 0 0 0 0 0 0 0 0 0 0 127 0"/>
<feOffset dy="4"/>
<feGaussianBlur stdDeviation="2"/>
<feColorMatrix type="matrix" values="0 0 0 0 0.169878 0 0 0 0 0.348759 0 0 0 0 0.395833 0 0 0 0.05 0"/>
<feBlend mode="normal" in2="BackgroundImageFix" result="effect1_dropShadow"/>
<feColorMatrix in="SourceAlpha" type="matrix" values="0 0 0 0 0 0 0 0 0 0 0 0 0 0 0 0 0 0 127 0"/>
<feOffset dy="2"/>
<feGaussianBlur stdDeviation="1"/>
<feColorMatrix type="matrix" values="0 0 0 0 0.168627 0 0 0 0 0.34902 0 0 0 0 0.396078 0 0 0 0.1 0"/>
<feBlend mode="normal" in2="effect1_dropShadow" result="effect2_dropShadow"/>
<feBlend mode="normal" in="SourceGraphic" in2="effect2_dropShadow" result="shape"/>
</filter>
</defs>
</svg>
