<svg width="24" height="24" viewBox="0 0 24 24" fill="none" xmlns="http://www.w3.org/2000/svg">
<g opacity="0.4">
<path fill-rule="evenodd" clip-rule="evenodd" d="M8.00002 12C8.00002 12.228 8.07702 12.455 8.23202 12.64L13.232 18.64C13.585 19.064 14.216 19.122 14.64 18.768C15.064 18.415 15.121 17.785 14.768 17.36L10.292 11.989L14.607 6.62703C14.953 6.19703 14.885 5.56703 14.455 5.22103C14.025 4.87503 13.396 4.94303 13.049 5.37303L8.22102 11.373C8.07402 11.556 8.00002 11.778 8.00002 12Z" fill="#231F20"/>
<mask id="mask0" mask-type="alpha" maskUnits="userSpaceOnUse" x="8" y="5" width="7" height="14">
<path fill-rule="evenodd" clip-rule="evenodd" d="M8.00002 12C8.00002 12.228 8.07702 12.455 8.23202 12.64L13.232 18.64C13.585 19.064 14.216 19.122 14.64 18.768C15.064 18.415 15.121 17.785 14.768 17.36L10.292 11.989L14.607 6.62703C14.953 6.19703 14.885 5.56703 14.455 5.22103C14.025 4.87503 13.396 4.94303 13.049 5.37303L8.22102 11.373C8.07402 11.556 8.00002 11.778 8.00002 12Z" fill="white"/>
</mask>
<g mask="url(#mask0)">
<rect width="24" height="24" transform="matrix(4.37114e-08 -1 -1 -4.37114e-08 24 24)" fill="#AFD2E1"/>
</g>
</g>
</svg>
