<svg width="24" height="22" viewBox="0 0 24 22" fill="none" xmlns="http://www.w3.org/2000/svg">
<path d="M22.5707 8.85946L3.20693 0.824664C2.39116 0.486133 1.4696 0.635055 0.801817 1.21312C0.134035 1.79127 -0.145246 2.68204 0.0730042 3.53788L1.97585 11L0.0730042 18.4621C-0.145246 19.318 0.133989 20.2087 0.80177 20.7869C1.47082 21.3662 2.39261 21.5132 3.20693 21.1754L22.5707 13.1406C23.4523 12.7747 24 11.9545 24 11C24 10.0455 23.4523 9.22527 22.5707 8.85946ZM22.0317 11.8416L2.66796 19.8764C2.34232 20.0115 1.98883 19.9545 1.72225 19.7237C1.45572 19.4929 1.34861 19.1512 1.43571 18.8096L3.24785 11.7031H10.2353C10.6236 11.7031 10.9384 11.3883 10.9384 11C10.9384 10.6116 10.6236 10.2968 10.2353 10.2968H3.24789L1.43571 3.19044C1.34861 2.84882 1.45572 2.5071 1.72225 2.27634C1.98879 2.04557 2.34218 1.98848 2.66791 2.12357L22.0317 10.1584C22.5532 10.3747 22.5937 10.8573 22.5937 11C22.5937 11.1427 22.5532 11.6253 22.0317 11.8416Z" fill="#00BEF0"/>
</svg>
