<svg width="20" height="15" viewBox="0 0 20 15" fill="none" xmlns="http://www.w3.org/2000/svg">
<path d="M10 4.7728C8.49547 4.7728 7.27276 5.99551 7.27276 7.50007C7.27276 9.00463 8.49547 10.2273 10 10.2273C11.5046 10.2273 12.7273 9.00463 12.7273 7.50007C12.7273 5.99551 11.5045 4.7728 10 4.7728Z" fill="#AFD2E1"/>
<path d="M10 0.681885C5.45455 0.681885 1.57274 3.50913 0 7.50007C1.57274 11.491 5.45455 14.3183 10 14.3183C14.55 14.3183 18.4273 11.491 20 7.50007C18.4273 3.50913 14.55 0.681885 10 0.681885ZM10 12.0455C7.49093 12.0455 5.45455 10.0091 5.45455 7.50003C5.45455 4.99094 7.49093 2.9546 10 2.9546C12.5091 2.9546 14.5455 4.99098 14.5455 7.50007C14.5455 10.0092 12.5091 12.0455 10 12.0455Z" fill="#AFD2E1"/>
</svg>
