<svg width="14" height="9" viewBox="0 0 14 9" fill="none" xmlns="http://www.w3.org/2000/svg">
<mask id="path-1-inside-1" fill="white">
<path fill-rule="evenodd" clip-rule="evenodd" d="M0.357424 4.98987C0.156331 4.69384 0.156331 4.30616 0.357424 4.01013C1.79654 1.89167 4.22557 0.5 6.97964 0.5C9.73371 0.5 12.1627 1.89167 13.6019 4.01014C13.8029 4.30616 13.8029 4.69385 13.6019 4.98987C12.1627 7.10833 9.73371 8.5 6.97964 8.5C4.22557 8.5 1.79654 7.10833 0.357424 4.98987Z"/>
</mask>
<path d="M13.6019 4.01014L12.7747 4.57206L13.6019 4.01014ZM13.6019 4.98987L12.7747 4.42794L13.6019 4.98987ZM1.18461 4.57206C2.44554 2.71591 4.57075 1.5 6.97964 1.5V-0.5C3.8804 -0.5 1.14755 1.06743 -0.469763 3.44821L1.18461 4.57206ZM6.97964 1.5C9.38853 1.5 11.5137 2.71591 12.7747 4.57206L14.429 3.44821C12.8117 1.06743 10.0789 -0.5 6.97964 -0.5V1.5ZM12.7747 4.42794C11.5137 6.28409 9.38853 7.5 6.97964 7.5V9.5C10.0789 9.5 12.8117 7.93257 14.429 5.55179L12.7747 4.42794ZM6.97964 7.5C4.57075 7.5 2.44554 6.28409 1.18461 4.42794L-0.469763 5.55179C1.14755 7.93257 3.8804 9.5 6.97964 9.5V7.5ZM12.7747 4.57206C12.7453 4.5289 12.7453 4.47111 12.7747 4.42794L14.429 5.55179C14.8606 4.91659 14.8606 4.08342 14.429 3.44821L12.7747 4.57206ZM-0.469763 3.44821C-0.901273 4.08342 -0.901274 4.91658 -0.469763 5.55179L1.18461 4.42794C1.21393 4.4711 1.21393 4.5289 1.18461 4.57206L-0.469763 3.44821Z" fill="white" mask="url(#path-1-inside-1)"/>
<circle cx="6.97955" cy="4.5" r="3.5" stroke="white"/>
<circle cx="6.97955" cy="4.5" r="1" fill="white"/>
</svg>
