<svg width="14" height="13" viewBox="0 0 14 13" fill="none" xmlns="http://www.w3.org/2000/svg">
<path d="M1.85141 9.30462L1.86875 9.1165L1.75736 8.96392C1.14754 8.12859 0.830279 7.16983 0.830279 6.18421C0.830279 3.38275 3.43424 1 6.76845 1C10.1027 1 12.7066 3.38275 12.7066 6.18421C12.7066 8.98567 10.1027 11.3684 6.76845 11.3684C5.91511 11.3684 5.09435 11.2136 4.325 10.9092L4.10275 10.8212L3.89473 10.939C3.01437 11.4373 1.90079 11.7296 1.19503 11.878C1.30726 11.6691 1.40336 11.4381 1.48525 11.1923C1.66299 10.6587 1.78551 10.0197 1.85141 9.30462Z" stroke="white" stroke-opacity="0.7"/>
</svg>
