<svg width="14" height="13" viewBox="0 0 14 13" fill="none" xmlns="http://www.w3.org/2000/svg">
<path d="M1.85123 9.30462L1.86856 9.1165L1.75717 8.96392C1.14736 8.12859 0.830095 7.16983 0.830095 6.18421C0.830095 3.38275 3.43406 1 6.76827 1C10.1025 1 12.7064 3.38275 12.7064 6.18421C12.7064 8.98567 10.1025 11.3684 6.76827 11.3684C5.91493 11.3684 5.09417 11.2136 4.32482 10.9092L4.10256 10.8212L3.89455 10.939C3.01419 11.4373 1.9006 11.7296 1.19485 11.878C1.30708 11.6691 1.40318 11.4381 1.48507 11.1923C1.66281 10.6587 1.78532 10.0197 1.85123 9.30462Z" stroke="#3C3C3C" stroke-opacity="0.5"/>
</svg>
