<svg width="24" height="25" viewBox="0 0 24 25" fill="none" xmlns="http://www.w3.org/2000/svg">
<path fill-rule="evenodd" clip-rule="evenodd" d="M10 0.618774C8.12223 0.618774 6.6 2.14101 6.6 4.01877V4.11879C6.6 4.67107 6.15228 5.11879 5.6 5.11879H3.76556C2.30302 5.11879 1.06936 6.20784 0.887953 7.65909L0.322094 12.186C0.143088 13.618 1.04432 14.9637 2.43666 15.3435L10.7107 17.6C11.5548 17.8302 12.4452 17.8302 13.2893 17.6L21.5633 15.3435C22.9557 14.9637 23.8569 13.618 23.6779 12.186L23.112 7.65909C22.9306 6.20784 21.697 5.11879 20.2344 5.11879H18.4C17.8477 5.11879 17.4 4.67107 17.4 4.11879V4.01877C17.4 2.14101 15.8778 0.618774 14 0.618774H10ZM14.6 5.11879C15.1523 5.11879 15.6 4.67107 15.6 4.11879V4.01877C15.6 3.13512 14.8837 2.41877 14 2.41877H10C9.11634 2.41877 8.4 3.13512 8.4 4.01877V4.11879C8.4 4.67107 8.84772 5.11879 9.4 5.11879H14.6ZM2.67405 7.88235C2.74286 7.33188 3.2108 6.91879 3.76556 6.91879H20.2344C20.7892 6.91879 21.2571 7.33188 21.3259 7.88235L21.8918 12.4092C21.9597 12.9524 21.6178 13.4629 21.0897 13.6069L12.8157 15.8635C12.2816 16.0091 11.7184 16.0091 11.1843 15.8635L2.91027 13.6069C2.38214 13.4629 2.0403 12.9524 2.10819 12.4092L2.67405 7.88235Z" fill="#8D9B9B"/>
<path d="M2 14.5188V20.0188C2 21.1234 2.89543 22.0188 4 22.0188H20C21.1046 22.0188 22 21.1234 22 20.0188V14.5188" stroke="#8D9B9B" stroke-width="1.8" stroke-linecap="round" stroke-linejoin="round"/>
</svg>
