<svg width="14" height="13" viewBox="0 0 14 13" fill="none" xmlns="http://www.w3.org/2000/svg">
<path d="M6.34071 11.0694L6.32981 11.0587L6.31828 11.0487C4.63581 9.58864 3.285 8.40015 2.34997 7.28415C1.42034 6.17461 0.953735 5.19639 0.953735 4.16316C0.953735 2.49041 2.26595 1.18948 3.99473 1.18948C4.94332 1.18948 5.89976 1.63106 6.5133 2.34237L6.89191 2.78131L7.27053 2.34237C7.88406 1.63106 8.8405 1.18948 9.78909 1.18948C11.5179 1.18948 12.8301 2.49041 12.8301 4.16316C12.8301 5.19639 12.3635 6.17461 11.4339 7.28415C10.4988 8.40015 9.14801 9.58864 7.46555 11.0487L7.45401 11.0587L7.44311 11.0694L6.89191 11.6101L6.34071 11.0694Z" stroke="#3C3C3C" stroke-opacity="0.5"/>
</svg>
