<svg width="16" height="15" viewBox="0 0 16 15" fill="none" xmlns="http://www.w3.org/2000/svg">
<g clip-path="url(#clip0)">
<path d="M7.95374 15C12.0959 15 15.4537 11.6421 15.4537 7.5C15.4537 3.35786 12.0959 0 7.95374 0C3.8116 0 0.453735 3.35786 0.453735 7.5C0.453735 11.6421 3.8116 15 7.95374 15Z" fill="#00BEF0"/>
<path d="M15.4538 7.49951C15.4538 11.6433 12.0975 14.9995 7.95378 14.9995C5.57721 14.9995 3.45846 13.8933 2.08032 12.1683C3.36001 13.1901 4.98659 13.7995 6.75378 13.7995C10.8975 13.7995 14.2538 10.4433 14.2538 6.29951C14.2538 4.53233 13.6444 2.90576 12.6225 1.62608C14.3475 3.0042 15.4538 5.12295 15.4538 7.49951Z" fill="#31AFD0"/>
<path d="M4.92026 5.91267H3.70163C3.53338 5.91267 3.39697 6.04905 3.39697 6.21733V11.0918C3.39697 11.2601 3.53338 11.3965 3.70163 11.3965H4.92026C5.08851 11.3965 5.22492 11.2601 5.22492 11.0918V6.2173C5.22492 6.04905 5.08854 5.91267 4.92026 5.91267Z" fill="white"/>
<path d="M12.5305 6.72025C12.4768 6.24764 12.0353 5.91269 11.5596 5.91269H9.18444C9.38629 5.55122 9.49463 4.52894 9.48983 4.11131C9.48186 3.42005 8.9094 2.8661 8.21814 2.8661H7.96674C7.79835 2.8661 7.66206 3.00236 7.66206 3.17076C7.66206 3.87526 7.38775 5.14687 6.8704 5.66425C6.52214 6.01247 6.22446 6.13868 5.83411 6.33374V10.9051C6.43176 11.1043 7.19055 11.3965 8.34713 11.3965H10.34C10.9967 11.3965 11.5081 10.7883 11.2537 10.1458C11.6413 10.0401 11.9272 9.6846 11.9272 9.2639C11.9272 9.14519 11.9043 9.03154 11.863 8.92713C12.5163 8.74912 12.7568 7.94246 12.3033 7.43595C12.4699 7.24985 12.5618 6.99529 12.5305 6.72025Z" fill="white"/>
</g>
<defs>
<clipPath id="clip0">
<rect width="15" height="15" fill="white" transform="translate(0.453735)"/>
</clipPath>
</defs>
</svg>
