<svg width="18" height="18" viewBox="0 0 18 18" fill="none" xmlns="http://www.w3.org/2000/svg">
<path fill-rule="evenodd" clip-rule="evenodd" d="M9 16.5C13.1421 16.5 16.5 13.1421 16.5 9C16.5 4.85786 13.1421 1.5 9 1.5C4.85786 1.5 1.5 4.85786 1.5 9C1.5 13.1421 4.85786 16.5 9 16.5ZM9 18C13.9706 18 18 13.9706 18 9C18 4.02944 13.9706 0 9 0C4.02944 0 0 4.02944 0 9C0 13.9706 4.02944 18 9 18Z" fill="#B3C2C2"/>
<path fill-rule="evenodd" clip-rule="evenodd" d="M5.32674 10.0738C5.7278 9.97026 6.13687 10.2114 6.24044 10.6125C6.36667 11.1013 6.62167 11.5522 6.9847 11.9153C7.51918 12.4497 8.24409 12.75 8.99995 12.75C9.75582 12.75 10.4807 12.4497 11.0152 11.9153C11.3782 11.5522 11.6332 11.1013 11.7595 10.6125C11.863 10.2114 12.2721 9.97026 12.6732 10.0738C13.0742 10.1774 13.3154 10.5865 13.2118 10.9875C13.0192 11.7335 12.63 12.4218 12.0759 12.9759C11.2601 13.7917 10.1536 14.25 8.99995 14.25C7.84626 14.25 6.73982 13.7917 5.92404 12.9759C5.36989 12.4218 4.98072 11.7335 4.78808 10.9875C4.68451 10.5865 4.92568 10.1774 5.32674 10.0738Z" fill="#B3C2C2"/>
<path d="M7 6C7 6.55228 6.55228 7 6 7C5.44772 7 5 6.55228 5 6C5 5.44772 5.44772 5 6 5C6.55228 5 7 5.44772 7 6Z" fill="#B3C2C2"/>
<path fill-rule="evenodd" clip-rule="evenodd" d="M6 7C6.55228 7 7 6.55228 7 6C7 5.44772 6.55228 5 6 5C5.44772 5 5 5.44772 5 6C5 6.55228 5.44772 7 6 7Z" fill="#B3C2C2"/>
<path d="M13 6C13 6.55228 12.5523 7 12 7C11.4477 7 11 6.55228 11 6C11 5.44772 11.4477 5 12 5C12.5523 5 13 5.44772 13 6Z" fill="#B3C2C2"/>
<path fill-rule="evenodd" clip-rule="evenodd" d="M12 7C12.5523 7 13 6.55228 13 6C13 5.44772 12.5523 5 12 5C11.4477 5 11 5.44772 11 6C11 6.55228 11.4477 7 12 7Z" fill="#B3C2C2"/>
</svg>
