<svg width="14" height="9" viewBox="0 0 14 9" fill="none" xmlns="http://www.w3.org/2000/svg">
<g opacity="0.5">
<mask id="path-1-inside-1" fill="white">
<path fill-rule="evenodd" clip-rule="evenodd" d="M0.357241 4.98987C0.156147 4.69384 0.156148 4.30616 0.357241 4.01013C1.79636 1.89167 4.22539 0.5 6.97946 0.5C9.73353 0.5 12.1626 1.89167 13.6017 4.01014C13.8028 4.30616 13.8028 4.69385 13.6017 4.98987C12.1626 7.10833 9.73353 8.5 6.97946 8.5C4.22539 8.5 1.79636 7.10833 0.357241 4.98987Z"/>
</mask>
<path d="M13.6017 4.01014L12.7745 4.57206L13.6017 4.01014ZM13.6017 4.98987L12.7745 4.42794L13.6017 4.98987ZM1.18443 4.57206C2.44535 2.71591 4.57056 1.5 6.97946 1.5V-0.5C3.88021 -0.5 1.14737 1.06743 -0.469946 3.44821L1.18443 4.57206ZM6.97946 1.5C9.38835 1.5 11.5136 2.71591 12.7745 4.57206L14.4289 3.44821C12.8115 1.06743 10.0787 -0.5 6.97946 -0.5V1.5ZM12.7745 4.42794C11.5136 6.28409 9.38835 7.5 6.97946 7.5V9.5C10.0787 9.5 12.8115 7.93257 14.4289 5.55179L12.7745 4.42794ZM6.97946 7.5C4.57056 7.5 2.44535 6.28409 1.18443 4.42794L-0.469946 5.55179C1.14737 7.93257 3.88021 9.5 6.97946 9.5V7.5ZM12.7745 4.57206C12.7452 4.5289 12.7452 4.47111 12.7745 4.42794L14.4289 5.55179C14.8604 4.91659 14.8604 4.08342 14.4289 3.44821L12.7745 4.57206ZM-0.469946 3.44821C-0.901457 4.08342 -0.901457 4.91658 -0.469946 5.55179L1.18443 4.42794C1.21375 4.4711 1.21375 4.5289 1.18443 4.57206L-0.469946 3.44821Z" fill="#3C3C3C" mask="url(#path-1-inside-1)"/>
<circle cx="6.97937" cy="4.5" r="3.5" stroke="#3C3C3C"/>
<circle cx="6.97937" cy="4.5" r="1" fill="#3C3C3C"/>
</g>
</svg>
