<?xml version="1.0" encoding="utf-8"?><svg width="18" height="20" fill="none" xmlns="http://www.w3.org/2000/svg" viewBox="0 0 18 20"><path fill-rule="evenodd" clip-rule="evenodd" d="M4 14c0-.55.45-1 1-1s1 .45 1 1-.45 1-1 1-1-.45-1-1zm5-1h4c.55 0 1 .45 1 1s-.45 1-1 1H9c-.55 0-1-.45-1-1s.45-1 1-1zm6 5H3c-.551 0-1-.449-1-1v-6h14v6c0 .551-.449 1-1 1zM3 4h1v1c0 .55.45 1 1 1s1-.45 1-1V4h6v1c0 .55.45 1 1 1s1-.45 1-1V4h1c.551 0 1 .449 1 1v4H2V5c0-.551.449-1 1-1zm12-2h-1V1c0-.55-.45-1-1-1s-1 .45-1 1v1H6V1c0-.55-.45-1-1-1S4 .45 4 1v1H3C1.346 2 0 3.346 0 5v12c0 1.654 1.346 3 3 3h12c1.654 0 3-1.346 3-3V5c0-1.654-1.346-3-3-3z" fill="#D2DCDC"/></svg>