<?xml version="1.0" encoding="utf-8"?><svg width="18" height="19" fill="none" xmlns="http://www.w3.org/2000/svg" viewBox="0 0 18 19"><path d="M17.624 6.92a.792.792 0 00-1.12.003L6.988 16.49a3.167 3.167 0 01-4.477-4.48l9.798-9.85a1.98 1.98 0 012.797 2.8L6.99 13.08l-.001.002A.791.791 0 015.87 11.96l3.918-3.92a.792.792 0 00-1.12-1.119l-3.918 3.92a2.375 2.375 0 103.359 3.358l.003-.004 8.114-8.114a3.563 3.563 0 00-5.038-5.038l-9.798 9.85a4.75 4.75 0 006.719 6.716l9.518-9.57a.792.792 0 00-.003-1.12z" fill="#B3C2C2"/></svg>