<?xml version="1.0" encoding="utf-8"?><svg width="24" height="25" fill="none" xmlns="http://www.w3.org/2000/svg" viewBox="0 0 24 25"><path fill-rule="evenodd" clip-rule="evenodd" d="M10 .619a3.4 3.4 0 00-3.4 3.4v.1a1 1 0 01-1 1H3.766a2.9 2.9 0 00-2.878 2.54l-.566 4.527a2.9 2.9 0 002.115 3.158L10.71 17.6a4.9 4.9 0 002.578 0l8.274-2.257a2.9 2.9 0 002.115-3.157l-.566-4.527a2.9 2.9 0 00-2.878-2.54H18.4a1 1 0 01-1-1v-.1a3.4 3.4 0 00-3.4-3.4h-4zm4.6 4.5a1 1 0 001-1v-.1a1.6 1.6 0 00-1.6-1.6h-4a1.6 1.6 0 00-1.6 1.6v.1a1 1 0 001 1h5.2zM2.674 7.882a1.1 1.1 0 011.092-.963h16.468a1.1 1.1 0 011.092.963l.566 4.527a1.1 1.1 0 01-.802 1.198l-8.274 2.257a3.101 3.101 0 01-1.632 0L2.91 13.607a1.1 1.1 0 01-.802-1.198l.566-4.527z" fill="#8D9B9B"/><path d="M2 14.519v5.5a2 2 0 002 2h16a2 2 0 002-2v-5.5" stroke="#8D9B9B" stroke-width="1.8" stroke-linecap="round" stroke-linejoin="round"/></svg>