<?xml version="1.0" encoding="utf-8"?><svg width="133" height="26" fill="none" xmlns="http://www.w3.org/2000/svg" viewBox="0 0 133 26"><g clip-path="url(#arclip0)"><path d="M12.896-.005c-2.55 0-5.044.754-7.164 2.167a12.865 12.865 0 00-4.75 5.77 12.82 12.82 0 00-.734 7.428 12.844 12.844 0 003.53 6.583 12.91 12.91 0 006.602 3.518c2.502.496 5.095.242 7.452-.731a12.888 12.888 0 005.787-4.736A12.828 12.828 0 0022.017 3.76a12.928 12.928 0 00-9.12-3.764zm-1.83 18.326l-.943 2.81a8.833 8.833 0 01-4.314-3.214 8.79 8.79 0 010-10.227 8.833 8.833 0 014.314-3.213l.947 2.813A5.86 5.86 0 008.206 9.42a5.831 5.831 0 000 6.787 5.86 5.86 0 002.864 2.132l-.004-.019zm4.455 2.865l-.89-2.828a5.86 5.86 0 002.929-2.108 5.832 5.832 0 00.039-6.853 5.86 5.86 0 00-2.906-2.14l.906-2.82a8.834 8.834 0 014.395 3.225 8.79 8.79 0 01-.06 10.349 8.835 8.835 0 01-4.432 3.175h.02z" fill="#08C2F5"/><path d="M131.058 15.17l1.433 1.709a6.482 6.482 0 01-4.796 1.958 7.139 7.139 0 01-3.315-.659c-1.904-.94-2.862-2.85-2.862-5.181 0-3.527 2.391-6.095 5.91-6.095 3.898 0 5.802 2.912 5.55 6.706h-8.928a2.917 2.917 0 001.366 2.32 4.482 4.482 0 002.439.596 4.396 4.396 0 003.203-1.355zm-6.967-3.609h6.31c-.155-1.377-1.288-2.539-3.11-2.539a3.14 3.14 0 00-2.073.677 3.114 3.114 0 00-1.127 1.862zm-59.939 6.961h3.222l-5.06-5.847 4.979-5.5h-3.174l-3.802 4.405h-1.114V7.176h-2.468v11.346h2.468v-4.515h1.133l3.816 4.515zm10.487-9.31c-2.06 0-3.426 1.598-3.426 3.637 0 2.039 1.366 3.634 3.426 3.634s3.42-1.565 3.42-3.634-1.281-3.638-3.42-3.638zm.423-2.318c3.208 0 5.569 2.506 5.569 5.955 0 3.449-2.343 5.97-5.569 5.97a4.798 4.798 0 01-3.678-1.481v5.921H68.9V7.176h2.42v1.362a4.56 4.56 0 013.742-1.644zm32.401.282H97.277v2.272h3.849v9.074h2.484V9.448h3.853V7.176zm-52.443 0H44.833v2.272h3.85v9.074h2.483V9.448h3.854V7.176zm-13.205 5.673c0-2.117-1.51-3.682-3.556-3.682-2.046 0-3.553 1.517-3.553 3.682s1.485 3.7 3.553 3.7c2.068 0 3.556-1.554 3.556-3.7zm-9.652 0c0-3.401 2.643-5.955 6.1-5.955 3.456 0 6.102 2.554 6.102 5.955 0 3.4-2.643 5.97-6.102 5.97-3.46 0-6.103-2.57-6.103-5.97h.003zm87.343-5.673v11.346h-2.439v-7.32l-5.969 7.32h-1.949V7.176h2.439v7.301l5.984-7.301h1.934zm-23.93 11.346h-2.464V7.176h2.465v11.346zm-6.31-3.87a1.627 1.627 0 00-1.02-1.606 1.642 1.642 0 00-.662-.12h-2.498v3.494h2.498a1.681 1.681 0 001.576-1.1c.078-.214.111-.441.098-.669h.008zm2.453 0c0 2.271-1.651 3.87-4.057 3.87h-5.023V7.176h2.473v3.667h2.78c2.343 0 3.82 1.517 3.82 3.808h.007z" fill="#000"/></g><defs><clipPath id="arclip0"><path fill="#fff" d="M0 0h133v26H0z"/></clipPath></defs></svg>