<?xml version="1.0" encoding="utf-8"?><svg width="18" height="20" fill="none" xmlns="http://www.w3.org/2000/svg" viewBox="0 0 18 20"><path fill-rule="evenodd" clip-rule="evenodd" d="M2.515 14l1.18-1.182c.378-.378.586-.88.586-1.414V6.727c0-1.357.59-2.654 1.62-3.556a4.66 4.66 0 013.737-1.129c2.327.309 4.082 2.413 4.082 4.895v4.467c0 .534.208 1.036.585 1.413L15.486 14H2.516zM11 16.341C11 17.24 10.084 18 9 18s-2-.76-2-1.659V16h4v.341zm6.521-3.133l-1.8-1.804V6.937C15.72 3.456 13.217.499 9.9.06a6.722 6.722 0 00-5.318 1.607 6.728 6.728 0 00-2.302 5.06v4.677L.478 13.208a1.631 1.631 0 00-.354 1.782C.38 15.604.973 16 1.637 16H5v.341C5 18.359 6.794 20 9 20s4-1.641 4-3.659V16h3.363c.664 0 1.256-.396 1.51-1.009a1.63 1.63 0 00-.352-1.783z" fill="#3C3C3C"/></svg>