<?xml version="1.0" encoding="utf-8"?><svg width="16" height="15" fill="none" xmlns="http://www.w3.org/2000/svg" viewBox="0 0 16 15"><g clip-path="url(#auclip0)"><path d="M7.954 15a7.5 7.5 0 100-15 7.5 7.5 0 000 15z" fill="#00BEF0"/><path d="M15.454 7.5c0 4.143-3.357 7.5-7.5 7.5a7.501 7.501 0 01-5.874-2.832A7.466 7.466 0 006.754 13.8c4.144 0 7.5-3.357 7.5-7.5 0-1.768-.61-3.394-1.631-4.674a7.501 7.501 0 012.83 5.874z" fill="#31AFD0"/><path d="M4.92 5.913H3.702a.305.305 0 00-.305.304v4.875c0 .168.136.304.305.304H4.92a.305.305 0 00.305-.304V6.217a.305.305 0 00-.305-.304zM12.53 6.72c-.053-.472-.495-.807-.97-.807H9.184c.202-.362.31-1.384.306-1.802a1.269 1.269 0 00-1.272-1.245h-.251a.305.305 0 00-.305.305c0 .704-.274 1.976-.792 2.493-.348.348-.646.475-1.036.67v4.571c.598.2 1.357.492 2.513.492h1.993c.657 0 1.168-.609.914-1.251a.916.916 0 00.609-1.219.914.914 0 00.44-1.491.912.912 0 00.227-.716z" fill="#fff"/></g><defs><clipPath id="auclip0"><path fill="#fff" transform="translate(.454)" d="M0 0h15v15H0z"/></clipPath></defs></svg>