<?xml version="1.0" encoding="utf-8"?><svg width="14" height="13" fill="none" xmlns="http://www.w3.org/2000/svg" viewBox="0 0 14 13"><path d="M6.34 11.07l-.01-.011-.012-.01C4.636 9.589 3.285 8.4 2.35 7.284 1.42 6.174.954 5.196.954 4.164c0-1.674 1.312-2.975 3.04-2.975a3.4 3.4 0 012.52 1.153l.378.44.379-.44A3.4 3.4 0 019.789 1.19c1.73 0 3.041 1.301 3.041 2.974 0 1.033-.466 2.012-1.396 3.121C10.499 8.4 9.148 9.59 7.466 11.05l-.012.01-.01.01-.552.541-.551-.54z" stroke="#fff" stroke-opacity=".7"/></svg>