<?xml version="1.0" encoding="utf-8"?><svg width="45" height="54" fill="none" xmlns="http://www.w3.org/2000/svg" viewBox="0 0 45 54"><g filter="url(#azfilter0_dd)"><rect x="4.868" width="35.385" height="46" rx="2" fill="#fff"/><path d="M22.469 11.283c-2.256 0-4.462.654-6.338 1.88a11.215 11.215 0 00-4.202 5.008 10.931 10.931 0 00-.65 6.447 11.085 11.085 0 003.123 5.713 11.489 11.489 0 005.841 3.054c2.213.43 4.507.21 6.592-.635a11.358 11.358 0 005.12-4.11 10.944 10.944 0 001.055-10.47 11.142 11.142 0 00-2.473-3.62 11.427 11.427 0 00-3.702-2.418 11.628 11.628 0 00-4.366-.849zM20.85 27.189l-.834 2.438a7.803 7.803 0 01-3.816-2.79 7.531 7.531 0 01-1.452-4.437 7.53 7.53 0 011.452-4.438 7.803 7.803 0 013.816-2.79l.837 2.442a5.177 5.177 0 00-2.533 1.85 4.996 4.996 0 00-.964 2.945c0 1.056.337 2.086.964 2.946a5.176 5.176 0 002.533 1.85l-.003-.016zm3.94 2.486l-.787-2.454a5.182 5.182 0 002.591-1.83c.645-.861.996-1.9 1.002-2.968a4.996 4.996 0 00-.967-2.98 5.178 5.178 0 00-2.57-1.858l.8-2.448a7.807 7.807 0 013.889 2.8 7.53 7.53 0 011.465 4.5 7.534 7.534 0 01-1.518 4.482 7.812 7.812 0 01-3.92 2.756h.016z" fill="#08C2F5"/></g><defs><filter id="azfilter0_dd" x=".868" y="0" width="43.385" height="54" filterUnits="userSpaceOnUse" color-interpolation-filters="sRGB"><feFlood flood-opacity="0" result="BackgroundImageFix"/><feColorMatrix in="SourceAlpha" values="0 0 0 0 0 0 0 0 0 0 0 0 0 0 0 0 0 0 127 0"/><feOffset dy="4"/><feGaussianBlur stdDeviation="2"/><feColorMatrix values="0 0 0 0 0.169878 0 0 0 0 0.348759 0 0 0 0 0.395833 0 0 0 0.05 0"/><feBlend in2="BackgroundImageFix" result="effect1_dropShadow"/><feColorMatrix in="SourceAlpha" values="0 0 0 0 0 0 0 0 0 0 0 0 0 0 0 0 0 0 127 0"/><feOffset dy="2"/><feGaussianBlur stdDeviation="1"/><feColorMatrix values="0 0 0 0 0.168627 0 0 0 0 0.34902 0 0 0 0 0.396078 0 0 0 0.1 0"/><feBlend in2="effect1_dropShadow" result="effect2_dropShadow"/><feBlend in="SourceGraphic" in2="effect2_dropShadow" result="shape"/></filter></defs></svg>