<?xml version="1.0" encoding="utf-8"?><svg width="24" height="24" fill="none" xmlns="http://www.w3.org/2000/svg" viewBox="0 0 24 24"><g opacity=".4"><path fill-rule="evenodd" clip-rule="evenodd" d="M8 12c0 .228.077.455.232.64l5 6a1 1 0 101.536-1.28l-4.476-5.371 4.315-5.362a1 1 0 00-1.558-1.254l-4.828 6A1 1 0 008 12z" fill="#231F20"/><mask id="baa" maskUnits="userSpaceOnUse" x="8" y="5" width="7" height="14"><path fill-rule="evenodd" clip-rule="evenodd" d="M8 12c0 .228.077.455.232.64l5 6a1 1 0 101.536-1.28l-4.476-5.371 4.315-5.362a1 1 0 00-1.558-1.254l-4.828 6A1 1 0 008 12z" fill="#fff"/></mask><g mask="url(#baa)"><path fill="#AFD2E1" d="M24 24V0H0v24z"/></g></g></svg>