<?xml version="1.0" encoding="utf-8"?><svg width="24" height="22" fill="none" xmlns="http://www.w3.org/2000/svg" viewBox="0 0 24 22"><path d="M22.57 8.86L3.208.824a2.305 2.305 0 00-2.405.388 2.305 2.305 0 00-.729 2.325L1.976 11 .073 18.462a2.305 2.305 0 00.729 2.325c.669.58 1.59.726 2.405.388l19.364-8.034A2.282 2.282 0 0024 11c0-.954-.548-1.775-1.43-2.14zm-.538 2.982L2.668 19.876a.895.895 0 01-.946-.152.895.895 0 01-.286-.914l1.812-7.107h6.987a.703.703 0 000-1.406H3.248L1.436 3.19a.895.895 0 01.286-.914.895.895 0 01.946-.152l19.364 8.034a.894.894 0 01.562.842c0 .143-.04.625-.562.842z" fill="#00BEF0"/></svg>