<?xml version="1.0" encoding="utf-8"?><svg width="21" height="21" fill="none" xmlns="http://www.w3.org/2000/svg" viewBox="0 0 21 21"><path d="M19.924 6.718l-5.734-.832L11.627.715c-.46-.922-1.79-.934-2.254 0L6.81 5.885l-5.734.833C.047 6.866-.365 8.128.38 8.85l4.149 4.023-.982 5.683c-.176 1.027.911 1.797 1.822 1.316l5.13-2.683 5.13 2.683c.91.477 1.998-.289 1.822-1.316l-.982-5.683 4.15-4.023c.745-.722.333-1.984-.696-2.132zm-5.475 5.499l.93 5.406-4.879-2.55-4.88 2.55.931-5.406-3.949-3.828L8.06 7.6 10.5 2.68l2.441 4.92 5.457.79-3.95 3.827z" fill="#fff"/></svg>