<?xml version="1.0" encoding="utf-8"?><svg width="14" height="9" fill="none" xmlns="http://www.w3.org/2000/svg" viewBox="0 0 14 9"><g opacity=".5"><mask id="bla" fill="#fff"><path fill-rule="evenodd" clip-rule="evenodd" d="M.357 4.99a.871.871 0 010-.98A7.992 7.992 0 016.98.5a7.992 7.992 0 016.623 3.51.87.87 0 010 .98A7.992 7.992 0 016.979 8.5 7.992 7.992 0 01.357 4.99z"/></mask><path d="M13.602 4.01l-.828.562.828-.562zm0 .98l-.828-.562.828.562zM1.184 4.572A6.992 6.992 0 016.98 1.5v-2A8.992 8.992 0 00-.47 3.448l1.654 1.124zM6.98 1.5a6.992 6.992 0 015.795 3.072l1.655-1.124A8.992 8.992 0 006.979-.5v2zm5.795 2.928A6.992 6.992 0 016.98 7.5v2c3.1 0 5.833-1.567 7.45-3.948l-1.655-1.124zM6.98 7.5a6.992 6.992 0 01-5.795-3.072L-.47 5.552A8.992 8.992 0 006.98 9.5v-2zm5.795-2.928a.13.13 0 010-.144l1.655 1.124a1.871 1.871 0 000-2.104l-1.655 1.124zM-.47 3.448a1.87 1.87 0 000 2.104l1.654-1.124a.13.13 0 010 .144L-.47 3.448z" fill="#3C3C3C" mask="url(#bla)"/><circle cx="6.979" cy="4.5" r="3.5" stroke="#3C3C3C"/><circle cx="6.979" cy="4.5" r="1" fill="#3C3C3C"/></g></svg>