<?xml version="1.0" encoding="utf-8"?><svg width="20" height="15" fill="none" xmlns="http://www.w3.org/2000/svg" viewBox="0 0 20 15"><path d="M10 4.773A2.73 2.73 0 007.273 7.5 2.73 2.73 0 0010 10.227 2.73 2.73 0 0012.727 7.5 2.73 2.73 0 0010 4.773z" fill="#AFD2E1"/><path d="M10 .682C5.455.682 1.573 3.509 0 7.5c1.573 3.991 5.455 6.818 10 6.818 4.55 0 8.427-2.827 10-6.818C18.427 3.51 14.55.682 10 .682zm0 11.364A4.547 4.547 0 015.455 7.5 4.547 4.547 0 0110 2.955 4.547 4.547 0 0114.546 7.5 4.547 4.547 0 0110 12.046z" fill="#AFD2E1"/></svg>