<?xml version="1.0" encoding="utf-8"?><svg width="22" height="20" fill="none" xmlns="http://www.w3.org/2000/svg" viewBox="0 0 22 20"><path fill-rule="evenodd" clip-rule="evenodd" d="M21.442 13.953L14.436 1.978a3.974 3.974 0 00-6.873 0L.555 13.958a4.007 4.007 0 003.419 6.04h14.038a4.005 4.005 0 003.43-6.045zm-19.164 1.02L9.291 2.986a1.975 1.975 0 013.416-.003l7.01 11.985a2.007 2.007 0 01-1.714 3.031H3.983a2.004 2.004 0 01-1.705-3.024zM11 15.999a1 1 0 100-2 1 1 0 000 2zm1.004-10h-2.001v7h2v-7z" fill="#FF6363"/></svg>